<svg width="323" height="72" fill="none" xmlns="http://www.w3.org/2000/svg"><path d="M71.872 24.104H80.8V53h5.472V24.104h8.88V19.64h-23.28v4.464zm34.294 14.976c0-5.616 2.496-7.296 6.528-7.296h1.392V26.12c-3.744 0-6.384 1.632-7.92 4.272v-3.84h-5.472V53h5.472V39.08zm11.126.576c0 8.16 5.52 13.776 12.384 13.776 4.416 0 7.584-2.112 9.264-4.368V53h5.52V26.552h-5.52v3.84c-1.632-2.16-4.704-4.272-9.168-4.272-6.96 0-12.48 5.376-12.48 13.536zm21.648.096c0 5.712-3.888 8.928-8.016 8.928-4.08 0-8.016-3.312-8.016-9.024s3.936-8.784 8.016-8.784c4.128 0 8.016 3.216 8.016 8.88zm9.587-13.2L158.559 53h6.528l10.08-26.448h-5.808l-7.488 21.552-7.488-21.552h-5.856zm41.912 4.176c4.08 0 7.296 2.592 7.392 6.672h-14.64c.576-4.176 3.552-6.672 7.248-6.672zm12.384 14.4h-5.904c-1.008 2.064-2.88 3.696-6.24 3.696-4.032 0-7.152-2.64-7.536-7.008h20.208a16.88 16.88 0 00.192-2.688c0-7.776-5.328-13.008-12.864-13.008-7.824 0-13.2 5.328-13.2 13.632 0 8.304 5.616 13.68 13.2 13.68 6.48 0 10.656-3.696 12.144-8.304zm6.105-25.488V53h16.752v-4.416H214.4V19.64h-5.472zm19.504 20.016c0 8.16 5.52 13.776 12.384 13.776 4.416 0 7.584-2.112 9.264-4.368V53h5.52V26.552h-5.52v3.84c-1.632-2.16-4.704-4.272-9.168-4.272-6.96 0-12.48 5.376-12.48 13.536zm21.648.096c0 5.712-3.888 8.928-8.016 8.928-4.08 0-8.016-3.312-8.016-9.024s3.936-8.784 8.016-8.784c4.128 0 8.016 3.216 8.016 8.88zM281.556 53h5.424V37.4c0-7.392-4.656-11.28-10.848-11.28-3.168 0-6.096 1.296-7.872 3.456v-3.024h-5.472V53h5.472V38.216c0-4.848 2.64-7.344 6.672-7.344 3.984 0 6.624 2.496 6.624 7.344V53zm10.579-13.344c0 8.16 5.52 13.776 12.48 13.776 4.32 0 7.488-2.016 9.168-4.416V53h5.52V17.48h-5.52v12.768c-2.016-2.496-5.664-4.128-9.12-4.128-7.008 0-12.528 5.376-12.528 13.536zm21.648.096c0 5.712-3.888 8.928-8.016 8.928-4.08 0-8.016-3.312-8.016-9.024s3.936-8.784 8.016-8.784c4.128 0 8.016 3.216 8.016 8.88z" fill="#fff"/><path d="M64 48.2c0-5.9-4.8-10.7-10.7-10.7-5.9 0-10.7 4.8-10.7 10.7 0 3.5 3.2 8.8 5.6 12.8H17.9c-1.3 0-2.7-.5-3.7-1.6-1.3-1.3-1.9-3.2-1.3-5.1.5-2.1 2.9-4 5.6-4h10.4c2.9 0 5.6-1.1 7.5-3.2 2.9-2.9 4-7.2 2.4-11.2-1.3-4-5.6-6.9-10.1-6.9H15.2c2.7-4 6.1-9.9 6.1-13.3C21.3 9.8 16.5 5 10.6 5 4.7 5 0 9.8 0 15.7c0 4.8 6.1 13.9 8 16.5.3 1.1 1.3 2.1 2.7 2.1h17.9c2.4 0 4.5 1.3 5.1 3.5.8 2.1.3 4.3-1.3 5.6-1.1 1.1-2.4 1.6-3.7 1.6H18.1c-5.3 0-9.9 3.5-10.7 8.5-.8 3.5.3 7.2 2.9 9.9 2.1 2.1 4.8 3.2 7.5 3.2h35.5c1.1 0 2.1-.8 2.4-1.6 2.2-2.9 8.3-12.3 8.3-16.8zM10.7 10.3c2.9 0 5.3 2.4 5.3 5.3 0 1.9-2.4 6.4-5.3 10.7-2.9-4.3-5.3-9.1-5.3-10.7-.1-2.9 2.3-5.3 5.3-5.3zm42.6 32.6c2.9 0 5.3 2.4 5.3 5.3 0 1.9-2.4 6.4-5.3 10.7-2.9-4.3-5.3-9.1-5.3-10.7 0-2.9 2.4-5.3 5.3-5.3z" fill="#EEC41E"/><path d="M53.3 50.1a2.7 2.7 0 100-5.4 2.7 2.7 0 000 5.4zM10.7 17.6a2.7 2.7 0 100-5.4 2.7 2.7 0 000 5.4z" fill="#EEC41E"/></svg>