<svg xmlns="http://www.w3.org/2000/svg" viewBox="0 0 453 102.58"><defs><style>.cls-7{fill:#5ccfff}</style></defs><g id="Шар_2" data-name="Шар 2"><g id="Шар_1-2" data-name="Шар 1"><text transform="translate(85.57 83.42)" font-size="72" fill="#fff" font-family="Montserrat-Bold,Montserrat" font-weight="700"><tspan letter-spacing="-.01em">T</tspan><tspan x="43.63" y="0" letter-spacing="-.01em">r</tspan><tspan x="74.16" y="0" letter-spacing="-.01em">a</tspan><tspan x="117.87" y="0" letter-spacing="-.02em">v</tspan><tspan x="159.84" y="0">eLi</tspan><tspan x="270.43" y="0" letter-spacing="-.02em">k</tspan><tspan x="316.29" y="0">e</tspan></text><path class="cls-7" d="M85.85 82.81l-20.8-41a1.4 1.4 0 00-1.24-.81H50.08l.18-.75a13.88 13.88 0 10-9 0l.17.75H22.19a1.4 1.4 0 00-1.24.75l-20.8 41a1.32 1.32 0 00.06 1.33 1.4 1.4 0 001.18.65h83.22a1.4 1.4 0 001.18-.65 1.32 1.32 0 00.06-1.27zm-45.22-6.63l6 5.87h-4.4L31.5 71.51a1.41 1.41 0 00-2 0L18.85 82.05h-4.4l12.89-12.71a1.35 1.35 0 000-1.93l-10.86-10.7L18 53.82l6 6a1.37 1.37 0 001 .4 1.38 1.38 0 001-.4l6.93-6.84a1.3 1.3 0 00.41-1v-8.22h2.77v10.37l-7.91 7.81a1.35 1.35 0 000 1.93l8.32 8.21a1.43 1.43 0 001 .4 1.41 1.41 0 001-.4l11.99-11.91h20.76l1.39 2.74H52.71a1.38 1.38 0 00-1 .4L40.63 74.25a1.35 1.35 0 000 1.93zm-2.37 5.87H22.77l7.75-7.64zm-3.58-54.7a11.1 11.1 0 1114 10.54 1.36 1.36 0 00-1 1l-2 8.36-2-8.36a1.36 1.36 0 00-1-1 11 11 0 01-8.15-10.54zm9.74 26.29a1.4 1.4 0 002.71 0l2.31-9.88H63l6.93 13.68H49.94a1.4 1.4 0 00-1 .4L37.45 69.18l-6.36-6.27 7.34-7.24a1.38 1.38 0 00.41-1V43.76h3.27zm-21.37-9.88h7.47v7.64L25 56.87l-5.71-5.63zm-7.87 15.53l9.21 9.09-13.87 13.67H3.63zm35.33 22.76l-6.94-6.84 9.71-9.57h20.77l5.54 10.94h-6.72L67.73 69a1.38 1.38 0 00-1-.6 1.4 1.4 0 00-1.12.4L63 71.36l-2.15-3.66a1.45 1.45 0 00-2.41 0l-5.15 8.88h-3.35v2.74H81l1.39 2.73zm12.29-5.47h-6.31l3.16-5.45zm3.2 0l-1.6-2.75 2-1.94 3.17 4.69z"/><path class="cls-7" d="M51.32 27.35h2.78a8.28 8.28 0 00-8.33-8.2v2.73a5.51 5.51 0 015.55 5.47zm-2.22 4.38l1.67 2.18a8.16 8.16 0 002.63-3.28l-2.54-1.09a5.51 5.51 0 01-1.76 2.19zM4.16 19.15a1.39 1.39 0 00-1.15.6L.23 23.86a1.34 1.34 0 000 1.51L3 29.48a1.4 1.4 0 001.15.61h6.95v12.3a1.37 1.37 0 001.38 1.37H18a1.38 1.38 0 001.39-1.37v-12.3h9.71a1.38 1.38 0 001.22-.73 1.33 1.33 0 00-.07-1.4L28 24.62l2.26-3.35a1.33 1.33 0 00.07-1.4 1.37 1.37 0 00-1.22-.72h-9.69v-2.74h6.94a1.4 1.4 0 001.15-.61l2.77-4.1a1.36 1.36 0 000-1.52l-2.77-4.1a1.4 1.4 0 00-1.15-.61h-6.94v-4.1A1.38 1.38 0 0018 0h-5.52a1.37 1.37 0 00-1.38 1.37v4.1H1.39a1.42 1.42 0 00-1.23.72A1.37 1.37 0 00.23 7.6l2.26 3.34-2.26 3.34a1.37 1.37 0 00-.07 1.41 1.42 1.42 0 001.23.72h9.71v2.74zM16.65 41h-2.78V30.09h2.78zm8.55-15.63l1.34 2H4.9l-1.84-2.75 1.84-2.74h21.64l-1.34 2a1.34 1.34 0 000 1.49zM13.87 2.74h2.78v2.73h-2.78zm-8.55 7.44L4 8.21h21.61l1.85 2.73-1.85 2.74H4l1.34-2a1.36 1.36 0 00-.02-1.5zm8.55 6.23h2.78v2.74h-2.78z"/><path class="cls-7" d="M5.55 23.25h2.77V26H5.55zm5.55 0h2.77V26H11.1zM22.19 9.57H25v2.74h-2.81zm-5.54 0h2.77v2.74h-2.77z"/></g></g></svg>