<svg height="512" viewBox="0 0 64 64" width="512" xmlns="http://www.w3.org/2000/svg"><path d="M62.895 61.553l-15-30A1.001 1.001 0 0047 31h-9.893l.126-.545C41.247 29.084 44 25.279 44 21c0-5.514-4.486-10-10-10s-10 4.486-10 10c0 4.279 2.753 8.084 6.767 9.455l.126.545H17c-.379 0-.725.214-.895.553l-15 30A.998.998 0 002 63h60a1 1 0 00.895-1.447zm-32.602-4.846L34.586 61h-3.172l-7.707-7.707a.999.999 0 00-1.414 0L14.586 61h-3.172l9.293-9.293a.999.999 0 000-1.414l-7.824-7.824 1.057-2.115 4.352 4.352a.998.998 0 001.415.001l5-5A.997.997 0 0025 39v-6h2v7.586l-5.707 5.707a.999.999 0 000 1.414l6 6a.997.997 0 001.414 0L37.414 45h14.968l1 2H39a.996.996 0 00-.707.293l-8 8a.999.999 0 000 1.414zM28.586 61H17.414L23 55.414zM26 21c0-4.411 3.589-8 8-8s8 3.589 8 8a8.015 8.015 0 01-5.877 7.705 1.001 1.001 0 00-.709.739L34 35.561l-1.414-6.117a1 1 0 00-.709-.739A8.015 8.015 0 0126 21zm7.025 19.225a1.001 1.001 0 001.95 0L36.645 33h9.737l5 10H37a.996.996 0 00-.707.293L28 51.586 23.414 47l5.293-5.293A.997.997 0 0029 41v-8h2.355zM17.618 33H23v5.586l-4 4-4.117-4.117zm-5.677 11.355L18.586 51l-10 10H3.618zM37.414 61l-5-5 7-7h14.968l4 8h-4.847l-3.703-5.555a.996.996 0 00-.733-.44.994.994 0 00-.806.288L46.4 53.185l-1.532-2.682c-.355-.623-1.381-.623-1.736 0L39.42 57H37v2h22.382l1 2zm8.863-4h-4.554L44 53.016zm2.303 0l-1.151-2.015 1.416-1.415L51.132 57z"/><path d="M38 21h2c0-3.309-2.691-6-6-6v2c2.206 0 4 1.794 4 4zm-1.601 3.2l1.201 1.6a6.018 6.018 0 001.899-2.4l-1.832-.8a3.993 3.993 0 01-1.268 1.6zM4 15c-.334 0-.646.167-.832.445l-2 3a1 1 0 000 1.109l2 3A1 1 0 004 23h5v9a1 1 0 001 1h4a1 1 0 001-1v-9h7a1 1 0 00.832-1.554L21.202 19l1.63-2.445A1 1 0 0022 15h-7v-2h5c.334 0 .646-.167.832-.445l2-3a1 1 0 000-1.109l-2-3A1 1 0 0020 5h-5V2a1 1 0 00-1-1h-4a1 1 0 00-1 1v3H2a1 1 0 00-.832 1.554L2.798 9l-1.63 2.445A1 1 0 002 13h7v2zm9 16h-2v-8h2zm6.168-11.445L20.132 21H4.535l-1.333-2 1.333-2h15.597l-.964 1.445a1 1 0 000 1.11zM11 3h2v2h-2zM4.832 8.445L3.868 7h15.597l1.333 2-1.333 2H3.868l.964-1.445a1 1 0 000-1.11zM11 13h2v2h-2z"/><path d="M5 18h2v2H5zm4 0h2v2H9zm8-10h2v2h-2zm-4 0h2v2h-2z"/></svg>